<svg width="499" height="193" viewBox="0 0 499 193" fill="none" xmlns="http://www.w3.org/2000/svg">
<path d="M137.291 130.258C137.793 123.476 129.854 114.033 126.615 108.988C127.515 112.334 131.166 120.377 132.229 125.418C133.331 130.648 133.259 135.244 132.229 137.597C133.461 138.07 136.87 135.96 137.291 130.258Z" fill="url(#paint0_linear_244_90)"/>
<path d="M106.603 118.268C105.438 112.09 104.052 109.069 102.207 106.289C102.207 109.584 101.28 116.097 100.825 118.268C100.243 121.048 94.9989 129.994 90.9204 135.554C87.6545 140.006 81.7925 144.511 78.3938 146.056C84.5114 150.998 95.5815 150.38 100.825 142.04C106.069 133.7 107.861 124.938 106.603 118.268Z" fill="url(#paint1_linear_244_90)"/>
<path d="M77.3523 141.383C92.114 135.83 95.4579 117.406 95.2847 108.888C89.879 128.069 76.5727 131.392 70.5952 130.656C71.011 137.975 75.2732 140.857 77.3523 141.383Z" fill="url(#paint2_linear_244_90)"/>
<path d="M91.3149 111.291C91.3411 111.233 91.3666 111.176 91.3914 111.119C91.3685 111.178 91.3429 111.235 91.3149 111.291C89.5406 115.222 84.5926 123.258 78.32 125.289C71.9548 127.35 69.0374 122.498 68.3743 119.814C69.7004 120.136 72.4663 120.78 72.9209 120.78C73.4893 120.78 68.3743 115.306 68.3743 114.34C68.3743 113.374 67.5219 107.255 68.3743 106.289C69.9846 108.65 74.1712 113.374 78.0358 113.374C82.7689 113.374 89.9571 113.992 91.3149 111.291Z" fill="url(#paint3_linear_244_90)"/>
<path d="M114.809 141.193C121.112 129.973 118.293 121.458 116.316 115.326C114.307 109.094 113.553 106.289 112.548 106.289C108.017 106.289 106.268 106.289 104.834 106.289L104.509 106.289C104.509 108.47 105.458 110.361 106.77 114.703C108.278 119.689 108.278 121.871 108.278 128.415C108.278 133.651 103.086 142.855 100.49 146.802C102.751 148.36 110.187 149.42 114.809 141.193Z" fill="url(#paint4_linear_244_90)"/>
<path d="M88.3388 67.5765C79.5385 62.6243 67.7332 61.7631 62.7964 62.1937C63.0111 62.6961 69.665 64.5621 74.3871 67.5765C82.9728 72.3134 87.6949 80.2801 89.1974 82.2179C90.3994 83.7682 98.48 96.7992 101.056 103.689L109.588 91.4764C107.005 85.9358 105.787 83.2532 103.149 80.0648C99.4319 75.571 94.6559 71.1314 88.3388 67.5765Z" fill="#CCCCCC"/>
<path d="M116.88 103.689L140.783 62.1314C132.588 61.6984 126.897 65.378 123.482 67.9754C120.616 70.1557 116.88 75.7676 114.604 79.2307L100.49 103.689H116.88Z" fill="black"/>
<path d="M130.594 131.236C130.202 119.321 123.858 111.2 117.519 105.828C120.341 115.583 121.929 116.887 123.695 128.68C125.012 137.472 118.086 145.722 114.919 148.731C117.383 149.442 131.068 145.65 130.594 131.236Z" fill="url(#paint5_linear_244_90)"/>
<circle cx="104.389" cy="102.389" r="61.3893" stroke="black" stroke-width="2"/>
<path d="M198.08 99.364C197.887 99.2867 197.751 99.1707 197.674 99.016C197.597 98.8613 197.519 98.552 197.442 98.088C197.442 97.6627 197.326 97.3533 197.094 97.16C196.862 96.9667 196.417 96.7927 195.76 96.638C195.335 96.2127 195.025 95.7293 194.832 95.188C194.639 94.6467 194.484 93.7573 194.368 92.52C194.291 91.2827 194.175 89.4267 194.02 86.952C194.097 85.5987 194.155 84.458 194.194 83.53C194.271 82.602 194.349 81.732 194.426 80.92C194.503 80.108 194.581 79.238 194.658 78.31C194.774 77.382 194.929 76.222 195.122 74.83C195.045 73.9407 195.083 72.974 195.238 71.93C195.431 70.886 195.47 70.0547 195.354 69.436C195.625 68.5853 195.799 67.6187 195.876 66.536C195.953 65.4147 196.127 64.4287 196.398 63.578C196.475 62.9207 196.553 62.302 196.63 61.722C196.746 61.142 196.804 60.6587 196.804 60.272C196.727 59.4987 196.765 58.7833 196.92 58.126C197.075 57.4687 197.384 57.0433 197.848 56.85C198.08 56.7727 198.409 56.7147 198.834 56.676C199.259 56.6373 199.569 56.6953 199.762 56.85C200.071 57.0047 200.284 57.256 200.4 57.604C200.516 57.952 200.555 58.3387 200.516 58.764C200.593 59.1893 200.593 59.924 200.516 60.968C200.477 62.012 200.381 63.172 200.226 64.448C200.071 65.6853 199.859 66.9033 199.588 68.102C199.279 69.6873 199.027 71.3113 198.834 72.974C198.679 74.598 198.563 76.2027 198.486 77.788C198.331 80.9587 198.177 83.588 198.022 85.676C197.867 87.764 197.848 89.272 197.964 90.2C197.964 90.316 198.003 90.6253 198.08 91.128C198.157 91.6307 198.254 92.114 198.37 92.578C198.486 93.0033 198.602 93.216 198.718 93.216C199.027 93.1773 199.317 92.9067 199.588 92.404C199.897 91.9013 200.168 91.3213 200.4 90.664C200.671 89.968 200.922 89.3687 201.154 88.866C201.657 87.8993 202.159 86.8553 202.662 85.734C203.203 84.574 203.667 83.472 204.054 82.428C204.75 80.804 205.446 79.412 206.142 78.252C206.838 77.092 207.495 75.7967 208.114 74.366C208.346 73.7473 208.752 72.858 209.332 71.698C209.951 70.4993 210.531 69.3973 211.072 68.392C211.729 67.3867 212.348 66.42 212.928 65.492C213.547 64.564 214.262 63.3267 215.074 61.78C216.195 59.924 217.065 58.648 217.684 57.952C218.303 57.256 218.921 56.908 219.54 56.908C219.965 56.8307 220.217 56.8307 220.294 56.908C220.41 56.9467 220.603 57.1593 220.874 57.546C221.183 57.9713 221.338 58.416 221.338 58.88C221.377 59.3053 221.183 59.9047 220.758 60.678C220.371 61.4513 219.675 62.5533 218.67 63.984C217.897 65.144 217.027 66.4973 216.06 68.044C215.132 69.5907 214.262 71.06 213.45 72.452C212.677 73.8053 212.116 74.8107 211.768 75.468C211.575 75.8933 211.401 76.338 211.246 76.802C211.091 77.266 210.859 77.6913 210.55 78.078C210.163 78.4647 209.641 79.296 208.984 80.572C208.327 81.848 207.689 83.1047 207.07 84.342C206.374 85.966 205.813 87.242 205.388 88.17C205.001 89.0593 204.673 89.794 204.402 90.374C204.17 90.954 203.938 91.5147 203.706 92.056C203.474 92.5973 203.184 93.274 202.836 94.086C202.643 94.7433 202.372 95.42 202.024 96.116C201.715 96.8507 201.541 97.334 201.502 97.566C201.231 97.9913 200.864 98.3587 200.4 98.668C199.975 99.016 199.549 99.248 199.124 99.364C198.699 99.48 198.351 99.48 198.08 99.364ZM217.872 94.144C217.562 93.8347 217.33 93.448 217.176 92.984C217.06 92.52 217.021 92.056 217.06 91.592C217.098 91.128 217.195 90.7413 217.35 90.432C217.35 90.1227 217.388 89.8907 217.466 89.736C217.582 89.5427 217.62 89.3687 217.582 89.214C217.543 89.0593 217.582 88.7887 217.698 88.402C217.814 88.0153 217.93 87.648 218.046 87.3C218.316 86.6813 218.606 85.9467 218.916 85.096C219.225 84.2067 219.515 83.3367 219.786 82.486C220.056 81.6353 220.288 80.9007 220.482 80.282C220.675 79.6633 220.791 79.2767 220.83 79.122C220.83 78.658 221.139 78.4067 221.758 78.368C222.222 78.2133 222.57 78.2133 222.802 78.368C223.034 78.484 223.343 78.8513 223.73 79.47C224.039 79.7793 224.155 80.2433 224.078 80.862C224 81.4807 223.749 82.254 223.324 83.182C223.169 83.4913 222.976 83.936 222.744 84.516C222.55 85.096 222.415 85.618 222.338 86.082C222.183 86.3913 221.99 86.836 221.758 87.416C221.564 87.9573 221.39 88.4793 221.236 88.982C221.158 89.1753 221.081 89.4653 221.004 89.852C220.926 90.2 220.83 90.5867 220.714 91.012C220.598 91.3987 220.443 91.7467 220.25 92.056C219.902 93.6413 219.573 94.5693 219.264 94.84C218.993 95.1107 218.529 94.8787 217.872 94.144ZM223.498 70.596C223.304 70.4027 223.13 70.132 222.976 69.784C222.821 69.3973 222.724 69.0493 222.686 68.74C222.647 68.392 222.686 68.218 222.802 68.218C223.111 68.1793 223.478 67.8507 223.904 67.232C224.329 66.6133 224.503 66.072 224.426 65.608C224.426 65.4533 224.484 65.318 224.6 65.202C224.716 65.0473 224.851 64.9507 225.006 64.912C225.47 64.6027 225.914 64.564 226.34 64.796C226.804 64.9893 227.229 65.3953 227.616 66.014C227.964 66.7487 228.06 67.3673 227.906 67.87C227.751 68.334 227.326 68.9913 226.63 69.842C226.05 70.6153 225.508 71.0407 225.006 71.118C224.542 71.1953 224.039 71.0213 223.498 70.596ZM234.374 95.362C233.253 95.5553 232.228 95.4973 231.3 95.188C230.372 94.84 229.618 94.2793 229.038 93.506C228.497 92.694 228.226 91.6693 228.226 90.432C228.11 89.272 228.245 87.938 228.632 86.43C229.019 84.8833 229.579 83.3367 230.314 81.79C231.087 80.2433 231.919 78.9093 232.808 77.788C233.581 76.86 234.355 76.0093 235.128 75.236C235.901 74.4627 236.597 73.9407 237.216 73.67C237.757 73.438 238.26 73.3027 238.724 73.264C239.227 73.1867 239.633 73.148 239.942 73.148C240.561 73.3027 241.218 73.5927 241.914 74.018C242.649 74.4047 243.016 74.83 243.016 75.294C243.016 75.294 243.055 75.352 243.132 75.468C243.248 75.5453 243.306 75.584 243.306 75.584C243.538 75.584 243.731 75.8353 243.886 76.338C244.079 76.8407 244.195 77.4207 244.234 78.078C244.273 78.6967 244.176 79.2187 243.944 79.644C243.789 80.3787 243.519 81.0167 243.132 81.558C242.745 82.0993 242.397 82.37 242.088 82.37C241.933 82.37 241.779 82.3893 241.624 82.428C241.508 82.428 241.45 82.5247 241.45 82.718C241.45 82.9113 241.334 82.9887 241.102 82.95C240.909 82.9113 240.696 82.7953 240.464 82.602C240.232 82.37 240.058 82.0993 239.942 81.79C239.942 81.5967 240.019 81.268 240.174 80.804C240.329 80.34 240.483 79.7407 240.638 79.006C240.87 77.9233 240.851 77.2273 240.58 76.918C240.309 76.57 239.787 76.5507 239.014 76.86C238.047 77.4013 237.119 78.1553 236.23 79.122C235.379 80.0887 234.587 81.3453 233.852 82.892C233.117 84.4 232.46 86.2947 231.88 88.576C231.648 89.4653 231.551 90.2387 231.59 90.896C231.667 91.5533 231.764 91.9013 231.88 91.94C232.421 92.0947 233.156 92.1333 234.084 92.056C235.012 91.94 235.689 91.766 236.114 91.534C236.733 91.2247 237.429 90.8187 238.202 90.316C238.975 89.7747 239.652 89.2913 240.232 88.866C240.425 88.75 240.657 88.5567 240.928 88.286C241.199 88.0153 241.489 87.8027 241.798 87.648C242.107 87.184 242.378 86.9133 242.61 86.836C242.842 86.7587 243.19 86.72 243.654 86.72C243.963 86.7973 244.253 86.9133 244.524 87.068C244.795 87.2227 244.969 87.3773 245.046 87.532C245.162 87.6867 245.104 87.822 244.872 87.938C244.717 87.938 244.621 87.996 244.582 88.112C244.582 88.1893 244.582 88.228 244.582 88.228C244.659 88.3827 244.485 88.7113 244.06 89.214C243.673 89.678 243.171 90.2 242.552 90.78C241.933 91.36 241.334 91.8627 240.754 92.288C240.213 92.6747 239.826 92.868 239.594 92.868C239.207 92.868 239.014 92.984 239.014 93.216C239.014 93.2933 238.724 93.4867 238.144 93.796C237.603 94.1053 236.965 94.4147 236.23 94.724C235.534 95.0333 234.915 95.246 234.374 95.362ZM249.075 94.724C248.688 94.4533 248.398 94.202 248.205 93.97C248.012 93.738 247.934 93.4093 247.973 92.984C248.05 92.404 248.166 91.8047 248.321 91.186C248.476 90.5287 248.669 89.8907 248.901 89.272C249.017 88.576 249.152 87.88 249.307 87.184C249.5 86.488 249.81 85.8307 250.235 85.212C250.738 83.7813 251.26 82.37 251.801 80.978C252.342 79.5473 252.806 78.0587 253.193 76.512C253.773 75.12 254.295 73.8827 254.759 72.8C255.262 71.7173 255.861 70.3253 256.557 68.624C256.944 67.7347 257.272 66.7487 257.543 65.666C257.852 64.5447 258.316 63.5587 258.935 62.708C259.206 62.36 259.399 62.07 259.515 61.838C259.67 61.5673 259.824 61.316 259.979 61.084C260.056 60.852 260.308 60.7747 260.733 60.852C261.197 60.9293 261.526 61.1033 261.719 61.374C261.912 61.3353 262.144 61.5867 262.415 62.128C262.686 62.6693 262.782 63.0947 262.705 63.404C262.705 63.8293 262.55 64.2933 262.241 64.796C262.086 64.9507 261.932 65.1827 261.777 65.492C261.622 65.7627 261.39 66.13 261.081 66.594C260.926 67.0967 260.772 67.5993 260.617 68.102C260.462 68.6047 260.288 69.0687 260.095 69.494C259.902 69.9193 259.689 70.3447 259.457 70.77C259.225 71.1953 259.07 71.5433 258.993 71.814C258.645 72.7033 258.258 73.5733 257.833 74.424C257.446 75.236 257.098 76.106 256.789 77.034C256.48 77.9233 256.151 78.8707 255.803 79.876C255.494 80.8427 255.068 81.7707 254.527 82.66C254.256 83.0467 254.044 83.5687 253.889 84.226C253.734 84.8833 253.58 85.5213 253.425 86.14C253.154 86.836 252.903 87.474 252.671 88.054C252.478 88.634 252.381 89.0013 252.381 89.156C252.11 90.0067 251.898 90.8573 251.743 91.708C251.588 92.52 251.337 93.2353 250.989 93.854C250.95 94.434 250.776 94.8207 250.467 95.014C250.196 95.2073 249.732 95.1107 249.075 94.724ZM262.937 95.652C262.318 95.5747 261.854 95.4587 261.545 95.304C261.236 95.1107 260.656 94.7047 259.805 94.086C259.341 93.622 258.703 92.9067 257.891 91.94C257.079 90.9733 256.267 89.9487 255.455 88.866C254.643 87.7447 253.966 86.7973 253.425 86.024L255.803 82.834C256.306 83.4527 256.712 84.0327 257.021 84.574C257.33 85.1153 257.582 85.4827 257.775 85.676C258.664 86.9907 259.36 88.054 259.863 88.866C260.404 89.678 260.888 90.3353 261.313 90.838C261.738 91.3407 262.183 91.7853 262.647 92.172C263.15 92.5587 263.768 92.9647 264.503 93.39C264.619 93.4673 264.735 93.5833 264.851 93.738C264.967 93.8927 265.006 94.1247 264.967 94.434C264.812 94.8593 264.638 95.13 264.445 95.246C264.29 95.3233 263.788 95.4587 262.937 95.652ZM253.251 85.386C253.019 84.7287 253.096 84.0713 253.483 83.414C253.908 82.718 254.372 82.2347 254.875 81.964C255.03 81.6933 255.184 81.5193 255.339 81.442C255.532 81.326 255.648 81.1907 255.687 81.036C255.764 80.8813 255.958 80.6687 256.267 80.398C256.615 80.1273 256.924 79.876 257.195 79.644C257.814 79.2573 258.51 78.7933 259.283 78.252C260.095 77.672 260.868 77.092 261.603 76.512C262.338 75.932 262.956 75.4293 263.459 75.004C264 74.5787 264.329 74.308 264.445 74.192C264.561 74.0373 264.716 73.9407 264.909 73.902C265.141 73.8247 265.431 73.8633 265.779 74.018C266.243 74.134 266.552 74.3273 266.707 74.598C266.862 74.83 266.939 75.294 266.939 75.99C267.055 76.4153 266.881 76.8793 266.417 77.382C265.992 77.846 265.334 78.368 264.445 78.948C264.136 79.1413 263.71 79.4313 263.169 79.818C262.666 80.2047 262.222 80.572 261.835 80.92C261.564 81.0747 261.158 81.3453 260.617 81.732C260.114 82.08 259.67 82.428 259.283 82.776C258.974 82.9693 258.568 83.3173 258.065 83.82C257.562 84.284 257.06 84.632 256.557 84.864C255.32 86.024 254.508 86.6427 254.121 86.72C253.734 86.7973 253.444 86.3527 253.251 85.386ZM273.913 109.34C273.874 109.417 273.7 109.34 273.391 109.108C273.12 108.876 272.849 108.586 272.579 108.238C272.308 107.929 272.192 107.658 272.231 107.426C272.076 106.885 272.095 106.208 272.289 105.396C272.521 104.623 273.004 103.463 273.739 101.916C274.125 101.297 274.473 100.563 274.783 99.712C275.131 98.8613 275.517 98.0107 275.943 97.16C276.136 96.812 276.561 96.058 277.219 94.898C277.876 93.738 278.572 92.4233 279.307 90.954C280.08 89.4847 280.718 88.0927 281.221 86.778C280.215 87.822 279.287 88.8853 278.437 89.968C277.586 91.012 276.793 91.8627 276.059 92.52C275.363 93.1773 274.705 93.4867 274.087 93.448C273.584 93.332 273.043 93.158 272.463 92.926C271.921 92.6553 271.554 92.1913 271.361 91.534C271.206 90.6833 271.148 89.6007 271.187 88.286C271.264 86.9713 271.515 84.98 271.941 82.312C272.25 80.9973 272.424 79.992 272.463 79.296C272.54 78.5613 272.521 78.02 272.405 77.672C272.289 77.324 272.076 77.0147 271.767 76.744C271.264 76.28 270.993 75.874 270.955 75.526C270.955 75.1393 271.225 74.8107 271.767 74.54C272.579 74.3467 273.159 74.2887 273.507 74.366C273.855 74.4047 274.28 74.714 274.783 75.294C275.092 75.7967 275.363 76.28 275.595 76.744C275.865 77.1693 276.001 77.9233 276.001 79.006C276.001 79.47 275.923 80.0887 275.769 80.862C275.653 81.6353 275.537 82.37 275.421 83.066C275.343 83.7233 275.285 84.1873 275.247 84.458C274.86 85.8887 274.609 87.126 274.493 88.17C274.415 89.214 274.473 89.736 274.667 89.736C275.44 89.1173 276.175 88.4213 276.871 87.648C277.605 86.836 278.359 85.9273 279.133 84.922C279.945 83.878 280.834 82.6987 281.801 81.384C282.149 80.7267 282.497 80.0887 282.845 79.47C283.193 78.8513 283.483 78.2133 283.715 77.556C283.947 77.0533 284.179 76.6473 284.411 76.338C284.643 76.0287 284.836 75.8547 284.991 75.816C285.184 75.7387 285.416 75.758 285.687 75.874C285.996 75.99 286.267 76.1253 286.499 76.28C286.769 76.396 286.905 76.4927 286.905 76.57C286.943 76.6087 287.04 76.6473 287.195 76.686C287.349 76.7247 287.504 76.7633 287.659 76.802C287.852 76.802 287.949 76.86 287.949 76.976C287.949 77.0533 287.852 77.3047 287.659 77.73C287.504 78.1553 287.311 78.6387 287.079 79.18C286.885 79.6827 286.711 80.1467 286.557 80.572C286.402 80.9587 286.344 81.1907 286.383 81.268C286.46 81.3453 286.402 81.6353 286.209 82.138C286.015 82.602 285.783 83.124 285.513 83.704C285.281 84.284 285.068 84.806 284.875 85.27C284.488 86.546 284.043 87.822 283.541 89.098C283.038 90.3353 282.439 91.5727 281.743 92.81C281.511 93.274 281.163 93.9893 280.699 94.956C280.273 95.9227 279.848 96.87 279.423 97.798C279.036 98.7647 278.727 99.4993 278.495 100.002C278.34 100.311 278.108 100.795 277.799 101.452C277.528 102.148 277.219 102.902 276.871 103.714C276.561 104.526 276.252 105.28 275.943 105.976C275.633 106.711 275.401 107.271 275.247 107.658C275.169 108.393 274.995 108.934 274.725 109.282C274.57 109.282 274.396 109.282 274.203 109.282C274.009 109.321 273.913 109.34 273.913 109.34ZM314.049 97.566C313.895 97.7207 313.721 97.7787 313.527 97.74C313.334 97.74 313.025 97.6433 312.599 97.45C311.865 97.2567 311.401 96.9667 311.207 96.58C311.053 96.232 311.169 95.6327 311.555 94.782C311.71 94.5113 311.903 93.9313 312.135 93.042C312.406 92.114 312.696 91.0507 313.005 89.852C313.315 88.6533 313.624 87.4547 313.933 86.256C314.243 85.0573 314.513 84.0133 314.745 83.124C314.977 82.196 315.132 81.5773 315.209 81.268C315.209 80.9587 315.287 80.34 315.441 79.412C315.635 78.484 315.809 77.44 315.963 76.28C316.389 75.468 316.679 74.5787 316.833 73.612C317.027 72.6453 317.162 71.9493 317.239 71.524C317.394 70.9053 317.568 70.248 317.761 69.552C317.993 68.856 318.187 68.16 318.341 67.464C318.496 66.8453 318.651 66.2073 318.805 65.55C318.999 64.8927 319.095 64.4673 319.095 64.274V63.346H316.949C316.369 63.3847 315.519 63.3847 314.397 63.346C313.276 63.3073 312.271 63.288 311.381 63.288C309.564 63.2107 308.346 63.0367 307.727 62.766C307.147 62.4567 306.819 61.8767 306.741 61.026C306.664 60.562 306.761 60.2333 307.031 60.04C307.302 59.8467 307.94 59.7307 308.945 59.692C309.951 59.6533 311.497 59.6727 313.585 59.75C315.209 59.6727 316.621 59.6727 317.819 59.75C319.018 59.7887 319.695 59.808 319.849 59.808C320.004 59.6533 320.101 59.4987 320.139 59.344C320.178 59.1893 320.236 59.0347 320.313 58.88C320.313 58.6867 320.333 58.474 320.371 58.242C320.449 57.9713 320.642 57.778 320.951 57.662C321.261 57.082 321.609 56.85 321.995 56.966C322.421 57.0433 322.846 57.3913 323.271 58.01C323.426 58.358 323.561 58.7253 323.677 59.112C323.832 59.4987 324.045 59.8467 324.315 60.156C324.47 60.0013 324.876 59.9047 325.533 59.866C326.191 59.8273 326.887 59.7887 327.621 59.75C328.511 59.75 329.303 59.7307 329.999 59.692C330.695 59.6147 331.179 59.576 331.449 59.576C331.797 59.3827 332.242 59.286 332.783 59.286C333.363 59.286 333.943 59.3247 334.523 59.402C335.413 59.402 336.031 59.4407 336.379 59.518C336.766 59.5953 337.017 59.7307 337.133 59.924C337.133 60.0787 337.133 60.2333 337.133 60.388C337.172 60.5427 337.269 60.6973 337.423 60.852C337.578 61.0067 337.655 61.1227 337.655 61.2C337.655 61.2387 337.578 61.4127 337.423 61.722C337.269 61.8767 336.998 62.012 336.611 62.128C336.225 62.2053 335.799 62.244 335.335 62.244C335.065 62.244 334.601 62.2827 333.943 62.36C333.286 62.3987 332.725 62.418 332.261 62.418C331.372 62.5727 330.367 62.708 329.245 62.824C328.163 62.9013 326.945 62.9787 325.591 63.056C325.011 63.056 324.47 63.0947 323.967 63.172C323.465 63.2107 323.213 63.3267 323.213 63.52C323.059 63.52 322.846 63.926 322.575 64.738C322.343 65.55 322.111 66.4007 321.879 67.29C321.647 68.2953 321.396 69.1653 321.125 69.9C320.893 70.6347 320.7 71.118 320.545 71.35C320.7 71.5047 320.758 71.698 320.719 71.93C320.719 72.162 320.603 72.568 320.371 73.148C320.217 73.6893 320.062 74.1147 319.907 74.424C319.791 74.7333 319.733 75.0427 319.733 75.352C319.733 75.352 319.637 75.6613 319.443 76.28C319.289 76.86 319.134 77.5947 318.979 78.484C318.902 79.3347 318.786 80.05 318.631 80.63C318.515 81.21 318.38 81.5773 318.225 81.732C318.225 81.732 318.148 81.8673 317.993 82.138C317.839 82.37 317.761 82.6407 317.761 82.95C317.761 83.298 317.684 83.878 317.529 84.69C317.413 85.4633 317.278 86.198 317.123 86.894C316.969 87.59 316.833 87.9767 316.717 88.054C317.104 88.1313 317.046 88.6533 316.543 89.62C316.543 90.0067 316.485 90.3933 316.369 90.78C316.253 91.1667 316.195 91.4373 316.195 91.592C315.963 92.3267 315.693 93.1387 315.383 94.028C315.074 94.9173 314.803 95.6907 314.571 96.348C314.339 97.044 314.165 97.45 314.049 97.566ZM332.345 96.174C330.643 96.174 329.251 95.536 328.169 94.26C327.086 92.9453 326.564 91.3213 326.603 89.388C326.68 87.996 326.951 86.5073 327.415 84.922C327.917 83.298 328.575 81.7513 329.387 80.282C330.199 78.774 331.088 77.4593 332.055 76.338C333.021 75.2167 334.027 74.424 335.071 73.96C335.457 73.7667 335.863 73.612 336.289 73.496C336.753 73.38 337.217 73.322 337.681 73.322C338.106 73.322 338.551 73.3993 339.015 73.554C339.479 73.67 339.865 73.8053 340.175 73.96C340.832 74.2307 341.335 74.5593 341.683 74.946C342.031 75.3327 342.34 75.932 342.611 76.744C342.727 77.4787 342.785 78.0007 342.785 78.31C342.785 78.6193 342.688 79.0833 342.495 79.702C342.031 81.094 341.431 82.2927 340.697 83.298C339.962 84.3033 338.976 85.154 337.739 85.85C337.429 86.0433 337.062 86.198 336.637 86.314C336.25 86.3913 335.844 86.43 335.419 86.43C334.645 86.43 333.891 86.2947 333.157 86.024C332.461 85.7147 331.9 85.27 331.475 84.69L331.069 84.226L330.895 84.69C330.508 85.734 330.199 86.7007 329.967 87.59C329.773 88.4793 329.677 89.2913 329.677 90.026C329.677 90.49 329.715 90.9347 329.793 91.36C329.909 91.7853 330.063 92.1527 330.257 92.462C330.411 92.694 330.663 92.868 331.011 92.984C331.397 93.0613 331.803 93.1 332.229 93.1C332.499 93.1 332.77 93.1 333.041 93.1C333.35 93.0613 333.64 92.984 333.911 92.868C334.568 92.636 335.09 92.3847 335.477 92.114C335.902 91.8433 336.327 91.5533 336.753 91.244L336.985 91.128H336.927C337.391 90.896 337.797 90.664 338.145 90.432C338.531 90.2 338.725 90.084 338.725 90.084C338.879 90.084 339.034 89.9873 339.189 89.794C339.498 89.6393 339.885 89.6973 340.349 89.968C340.851 90.2387 341.103 90.5867 341.103 91.012C341.064 91.2053 340.89 91.5147 340.581 91.94C340.271 92.3267 339.923 92.694 339.537 93.042C339.189 93.39 338.899 93.5833 338.667 93.622C338.628 93.6607 338.493 93.738 338.261 93.854C338.029 93.9313 337.874 94.0087 337.797 94.086H337.855C337.507 94.55 337.159 94.782 336.811 94.782H336.347C336.192 95.0527 335.689 95.362 334.839 95.71C333.988 96.0193 333.157 96.174 332.345 96.174ZM334.955 83.414C335.651 83.414 336.25 83.2207 336.753 82.834C337.294 82.4087 337.758 81.9447 338.145 81.442C338.918 80.398 339.363 79.3927 339.479 78.426C339.633 77.4207 339.517 76.7247 339.131 76.338C338.899 76.222 338.686 76.164 338.493 76.164C338.338 76.1253 338.009 76.1833 337.507 76.338C337.159 76.4153 336.675 76.7053 336.057 77.208C335.438 77.7107 334.819 78.2713 334.201 78.89C333.621 79.5087 333.176 80.0307 332.867 80.456L332.113 81.674C332.422 81.558 332.712 81.5 332.983 81.5C333.292 81.4613 333.466 81.4807 333.505 81.558C333.505 81.906 333.563 82.2347 333.679 82.544C333.833 82.8147 334.007 83.0273 334.201 83.182C334.433 83.3367 334.684 83.414 334.955 83.414ZM349.698 94.608C348.19 93.9893 347.204 93.1387 346.74 92.056C346.315 90.9347 346.237 89.214 346.508 86.894C346.585 85.6953 346.624 84.9027 346.624 84.516C346.624 84.1293 346.411 83.7427 345.986 83.356C345.87 83.2013 345.657 82.9887 345.348 82.718C345.077 82.4473 344.961 82.2153 345 82.022C344.961 81.7513 344.981 81.4613 345.058 81.152C345.135 80.804 345.251 80.63 345.406 80.63C345.561 80.63 345.715 80.5913 345.87 80.514C346.063 80.4367 346.237 80.4367 346.392 80.514C346.547 80.514 346.721 80.5333 346.914 80.572C347.107 80.6107 347.204 80.7073 347.204 80.862C347.359 81.1327 347.61 81.1713 347.958 80.978C348.306 80.746 348.673 80.2433 349.06 79.47C349.447 78.8513 349.949 78.2327 350.568 77.614C351.225 76.9953 351.863 76.4347 352.482 75.932C353.139 75.3907 353.681 75.004 354.106 74.772C354.299 74.6947 354.589 74.598 354.976 74.482C355.363 74.366 355.769 74.2693 356.194 74.192C356.658 74.1147 357.045 74.0953 357.354 74.134C358.05 74.1727 358.63 74.366 359.094 74.714C359.597 75.062 360.061 75.468 360.486 75.932C360.989 76.28 361.298 76.744 361.414 77.324C361.569 77.904 361.607 78.5227 361.53 79.18C361.453 79.8373 361.279 80.4367 361.008 80.978C360.892 81.3647 360.563 81.8287 360.022 82.37C359.481 82.9113 358.862 83.4333 358.166 83.936C357.47 84.4387 356.832 84.806 356.252 85.038C355.749 85.154 355.092 85.2507 354.28 85.328C353.507 85.4053 352.772 85.444 352.076 85.444C351.419 85.4053 350.974 85.328 350.742 85.212C350.471 85.0573 350.259 85.27 350.104 85.85C349.949 86.43 349.833 87.2613 349.756 88.344C349.679 89.1947 349.679 89.8133 349.756 90.2C349.833 90.5867 349.911 90.8573 349.988 91.012C350.259 91.2827 350.626 91.6307 351.09 92.056C351.593 92.4427 352.289 92.5007 353.178 92.23C353.913 92.0367 354.628 91.534 355.324 90.722C356.059 89.91 356.735 89.2527 357.354 88.75C357.509 88.4793 357.76 88.3247 358.108 88.286C358.495 88.2087 358.901 88.228 359.326 88.344C359.751 88.6147 359.925 88.9433 359.848 89.33C359.809 89.678 359.616 90.2193 359.268 90.954C359.152 91.2247 358.881 91.5727 358.456 91.998C358.069 92.3847 357.625 92.7907 357.122 93.216C356.658 93.6027 356.233 93.912 355.846 94.144C354.686 94.7627 353.603 95.0913 352.598 95.13C351.593 95.13 350.626 94.956 349.698 94.608ZM353.12 82.834C353.971 82.6407 354.647 82.5053 355.15 82.428C355.653 82.3507 356.136 82.138 356.6 81.79C357.064 81.4033 357.644 80.688 358.34 79.644C358.495 79.2187 358.533 78.7933 358.456 78.368C358.417 77.9427 358.321 77.6527 358.166 77.498C357.818 77.1113 357.393 76.9953 356.89 77.15C356.426 77.266 355.981 77.4787 355.556 77.788C355.285 77.904 354.879 78.194 354.338 78.658C353.835 79.0833 353.333 79.586 352.83 80.166C352.327 80.7073 351.921 81.21 351.612 81.674C351.303 82.138 351.225 82.4087 351.38 82.486C351.303 82.6407 351.515 82.7373 352.018 82.776C352.559 82.8147 352.927 82.834 353.12 82.834ZM371.169 70.19C370.783 70.2287 370.531 70.2287 370.415 70.19C370.299 70.1513 370.106 70.016 369.835 69.784C369.797 69.5133 369.835 69.262 369.951 69.03C370.067 68.798 370.222 68.5467 370.415 68.276C370.879 67.5027 371.401 66.594 371.981 65.55C372.6 64.4673 373.006 63.636 373.199 63.056C373.199 62.9013 373.219 62.766 373.257 62.65C372.6 62.766 371.923 62.534 371.227 61.954C370.493 61.258 370.241 60.562 370.473 59.866C370.744 59.1313 371.382 58.416 372.387 57.72C373.083 57.2947 373.586 57.0627 373.895 57.024C374.243 56.9853 374.765 57.1207 375.461 57.43C376.119 57.8167 376.563 58.2613 376.795 58.764C377.066 59.228 377.105 59.7113 376.911 60.214C376.795 61.1033 376.583 61.9347 376.273 62.708C376.003 63.4813 375.751 64.2353 375.519 64.97C375.287 65.8207 374.901 66.6133 374.359 67.348C373.818 68.0827 373.219 68.8367 372.561 69.61C372.6 69.7647 372.484 69.8613 372.213 69.9C371.943 69.9387 371.595 70.0353 371.169 70.19ZM374.834 96.232C374.099 95.9227 373.403 95.5167 372.746 95.014C372.089 94.4727 371.663 94.028 371.47 93.68C371.47 93.332 371.528 93.1 371.644 92.984C371.76 92.8293 372.089 92.7713 372.63 92.81C373.21 92.81 374.138 92.8873 375.414 93.042C375.878 93.042 376.458 93.0033 377.154 92.926C377.85 92.8487 378.488 92.7327 379.068 92.578C379.687 92.4233 380.035 92.23 380.112 91.998C380.305 91.998 380.344 91.94 380.228 91.824C380.112 91.6693 379.977 91.5147 379.822 91.36C379.667 91.36 379.493 91.302 379.3 91.186C379.107 91.0313 378.933 90.954 378.778 90.954C378.778 90.7607 378.585 90.548 378.198 90.316C377.85 90.0453 377.483 89.8327 377.096 89.678C376.245 88.982 375.511 88.3633 374.892 87.822C374.273 87.242 374.041 86.8553 374.196 86.662C374.196 86.5073 374.196 86.43 374.196 86.43C374.196 86.3913 374.196 86.372 374.196 86.372C373.925 86.372 373.616 85.9853 373.268 85.212C372.959 84.4387 372.804 83.7427 372.804 83.124C372.804 82.66 372.939 82.08 373.21 81.384C373.481 80.6493 373.848 79.8953 374.312 79.122C374.776 78.3487 375.259 77.7107 375.762 77.208C376.458 76.5507 377.328 75.8547 378.372 75.12C379.416 74.3467 380.441 73.67 381.446 73.09C382.49 72.4713 383.36 72.0653 384.056 71.872C384.752 71.6013 385.39 71.466 385.97 71.466C386.589 71.466 387.13 71.6013 387.594 71.872C387.981 72.0653 388.329 72.3553 388.638 72.742C388.986 73.09 389.276 73.4573 389.508 73.844C389.779 74.192 389.953 74.5013 390.03 74.772C390.03 75.236 389.991 75.758 389.914 76.338C389.837 76.8793 389.721 77.3627 389.566 77.788C389.45 78.2133 389.257 78.426 388.986 78.426C388.986 78.426 388.928 78.4453 388.812 78.484C388.735 78.484 388.696 78.5807 388.696 78.774C388.696 79.1607 388.406 79.6053 387.826 80.108C387.091 80.6107 386.453 80.92 385.912 81.036C385.371 81.1133 385.042 80.9007 384.926 80.398C384.81 80.2433 384.733 80.108 384.694 79.992C384.655 79.876 384.559 79.818 384.404 79.818C384.404 79.818 384.346 79.76 384.23 79.644C384.114 79.528 384.056 79.3347 384.056 79.064C384.056 78.9093 384.114 78.774 384.23 78.658C384.346 78.5033 384.404 78.426 384.404 78.426C384.597 78.426 384.849 78.2133 385.158 77.788C385.467 77.324 385.738 76.8407 385.97 76.338C386.241 75.7967 386.376 75.4293 386.376 75.236C386.376 75.004 386.337 74.8687 386.26 74.83C386.221 74.7913 386.047 74.772 385.738 74.772C385.197 75.004 384.539 75.3133 383.766 75.7C382.993 76.0867 382.258 76.4733 381.562 76.86C380.905 77.208 380.421 77.5367 380.112 77.846C379.957 78.1167 379.861 78.2907 379.822 78.368C379.783 78.4067 379.687 78.426 379.532 78.426C379.532 78.2713 379.397 78.3487 379.126 78.658C378.894 78.9287 378.585 79.3153 378.198 79.818C377.85 80.3207 377.502 80.8233 377.154 81.326C376.845 81.79 376.613 82.138 376.458 82.37C376.381 82.4473 376.284 82.6793 376.168 83.066C376.091 83.414 376.052 83.7427 376.052 84.052C375.897 84.516 375.917 84.8447 376.11 85.038C376.303 85.1927 376.729 85.5407 377.386 86.082C378.739 87.0873 379.803 87.9187 380.576 88.576C381.349 89.2333 381.929 89.7747 382.316 90.2C382.703 90.6253 382.935 91.012 383.012 91.36C383.708 92.52 383.921 93.4093 383.65 94.028C383.379 94.6467 382.722 95.188 381.678 95.652C381.291 95.8453 380.653 96 379.764 96.116C378.875 96.232 377.966 96.29 377.038 96.29C376.11 96.3287 375.375 96.3093 374.834 96.232Z" fill="black"/>
<path d="M183 135.205C183 134.933 183.037 134.686 183.111 134.463C183.186 134.24 183.198 133.956 183.148 133.609C183.915 131.977 184.781 130.467 185.746 129.082C186.736 127.672 187.911 126.435 189.271 125.371C189.494 125.198 189.667 125.025 189.791 124.852C189.939 124.654 190.076 124.468 190.199 124.295C190.348 124.122 190.508 123.973 190.682 123.85C190.855 123.701 191.077 123.602 191.35 123.553C191.968 122.835 192.71 122.18 193.576 121.586C194.442 120.992 195.345 120.423 196.285 119.879C197.225 119.335 198.165 118.778 199.105 118.209C200.07 117.64 200.936 117.021 201.703 116.354C201.975 116.527 202.186 116.589 202.334 116.539C202.507 116.465 202.68 116.452 202.854 116.502C203.076 116.972 203.361 117.306 203.707 117.504C204.078 117.677 204.449 117.863 204.82 118.061C205.216 118.234 205.575 118.456 205.896 118.729C206.243 118.976 206.503 119.322 206.676 119.768C206.503 119.768 206.416 119.829 206.416 119.953C206.441 120.077 206.478 120.213 206.527 120.361C206.577 120.51 206.602 120.646 206.602 120.77C206.602 120.893 206.49 120.955 206.268 120.955C206.268 121.128 206.354 121.215 206.527 121.215C206.701 121.215 206.787 121.301 206.787 121.475C206.787 121.623 206.75 121.747 206.676 121.846C206.626 121.92 206.626 122.056 206.676 122.254C206.082 122.65 205.414 123.033 204.672 123.404C203.954 123.751 203.188 124.122 202.371 124.518C201.579 124.913 200.763 125.346 199.922 125.816C199.105 126.262 198.289 126.781 197.473 127.375C196.656 127.969 195.827 128.624 194.986 129.342C194.17 130.059 193.378 130.826 192.611 131.643C191.844 132.434 191.127 133.263 190.459 134.129C189.791 134.97 189.222 135.799 188.752 136.615C188.801 136.739 188.863 136.85 188.938 136.949C189.036 137.048 189.111 137.16 189.16 137.283C190.1 137.333 190.979 137.333 191.795 137.283C192.611 137.209 193.428 137.258 194.244 137.432C194.343 137.357 194.405 137.258 194.43 137.135C194.454 137.011 194.529 136.924 194.652 136.875C196.335 136.702 197.906 136.43 199.365 136.059C200.825 135.663 202.309 135.267 203.818 134.871C203.373 134.698 202.977 134.562 202.631 134.463C202.482 134.314 202.482 134.191 202.631 134.092C202.804 133.968 202.94 133.844 203.039 133.721C202.643 133.498 202.309 133.201 202.037 132.83C201.79 132.459 201.641 131.977 201.592 131.383C201.765 131.234 201.852 131.061 201.852 130.863C201.852 130.665 201.765 130.505 201.592 130.381C201.468 130.331 201.394 130.331 201.369 130.381C201.344 130.43 201.32 130.48 201.295 130.529C201.295 130.579 201.27 130.628 201.221 130.678C201.196 130.727 201.134 130.727 201.035 130.678C201.06 130.406 201.122 130.183 201.221 130.01C201.32 129.837 201.394 129.626 201.443 129.379L204.523 127.338C204.845 127.585 205.241 127.845 205.711 128.117C206.181 128.389 206.676 128.661 207.195 128.934C207.715 129.206 208.247 129.49 208.791 129.787C209.335 130.059 209.842 130.331 210.312 130.604C210.758 130.801 211.141 131.049 211.463 131.346C211.785 131.618 212.094 131.915 212.391 132.236C212.688 132.533 212.984 132.83 213.281 133.127C213.578 133.424 213.937 133.671 214.357 133.869C214.308 134.265 214.333 134.587 214.432 134.834C214.531 135.081 214.555 135.378 214.506 135.725C214.036 136.566 213.467 137.283 212.799 137.877C212.131 138.446 211.376 138.941 210.535 139.361C209.719 139.782 208.84 140.141 207.9 140.438C206.96 140.71 205.995 140.982 205.006 141.254C204.016 141.501 203.014 141.773 202 142.07C201.01 142.342 200.033 142.664 199.068 143.035C198.648 143.035 198.289 143.048 197.992 143.072C197.695 143.097 197.411 143.134 197.139 143.184C196.867 143.233 196.594 143.283 196.322 143.332C196.05 143.382 195.753 143.419 195.432 143.443C195.308 143.419 195.221 143.443 195.172 143.518C195.147 143.592 195.098 143.654 195.023 143.703C194.529 143.777 194.083 143.814 193.688 143.814C193.292 143.814 192.958 143.814 192.686 143.814C192.339 143.814 191.98 143.864 191.609 143.963C191.238 144.062 190.892 144.099 190.57 144.074C188.344 143.975 186.6 143.184 185.338 141.699C184.076 140.215 183.383 138.174 183.26 135.576C183.285 135.452 183.26 135.378 183.186 135.354C183.111 135.304 183.049 135.255 183 135.205ZM215.1 142.627C215.001 142.528 214.914 142.417 214.84 142.293C214.766 142.145 214.704 141.959 214.654 141.736C214.308 141.316 214.036 140.833 213.838 140.289C213.64 139.745 213.504 139.188 213.43 138.619C213.355 138.025 213.343 137.432 213.393 136.838C213.442 136.244 213.529 135.688 213.652 135.168C213.727 134.921 213.788 134.661 213.838 134.389C213.962 133.919 214.085 133.461 214.209 133.016C214.333 132.546 214.518 132.162 214.766 131.865C214.667 131.593 214.679 131.296 214.803 130.975C214.926 130.653 215.05 130.356 215.174 130.084C215.223 130.01 215.26 129.948 215.285 129.898C215.31 129.824 215.335 129.762 215.359 129.713C215.656 128.847 215.941 128.018 216.213 127.227C216.51 126.41 216.794 125.631 217.066 124.889C217.561 123.528 218.031 122.192 218.477 120.881C218.947 119.57 219.367 118.172 219.738 116.688C219.936 116.539 220.109 116.44 220.258 116.391C220.307 116.366 220.369 116.341 220.443 116.316C220.518 116.292 220.604 116.279 220.703 116.279C221.223 116.551 221.829 116.811 222.521 117.059C223.239 117.281 223.845 117.393 224.34 117.393L224.971 117.949C225.292 118.32 225.564 118.716 225.787 119.137C226.035 119.533 226.109 120.052 226.01 120.695C225.861 120.918 225.738 121.054 225.639 121.104C225.49 121.673 225.329 122.18 225.156 122.625C224.983 123.046 224.81 123.454 224.637 123.85C224.439 124.295 224.253 124.74 224.08 125.186C223.907 125.631 223.758 126.175 223.635 126.818C223.486 126.992 223.387 127.14 223.338 127.264C223.313 127.387 223.276 127.511 223.227 127.635C223.177 127.783 223.115 127.944 223.041 128.117C222.967 128.266 222.855 128.402 222.707 128.525C222.608 129.292 222.46 129.923 222.262 130.418C222.064 130.888 221.866 131.358 221.668 131.828C221.322 132.694 221 133.56 220.703 134.426C220.406 135.267 220.233 136.232 220.184 137.32C220.48 137.246 220.753 137.209 221 137.209C221.322 137.209 221.631 137.258 221.928 137.357C222.818 136.912 223.783 136.64 224.822 136.541C225.886 136.442 226.938 136.38 227.977 136.355C228.842 136.355 229.646 136.318 230.389 136.244C230.636 136.417 230.797 136.516 230.871 136.541C230.945 136.541 231.069 136.541 231.242 136.541C231.316 136.541 231.391 136.541 231.465 136.541C231.539 136.541 231.638 136.553 231.762 136.578C232.108 136.924 232.442 137.172 232.764 137.32C233.085 137.444 233.432 137.568 233.803 137.691C234.124 137.815 234.434 137.951 234.73 138.1C235.052 138.223 235.361 138.396 235.658 138.619L235.992 140.512C236.19 140.784 236.277 140.969 236.252 141.068C236.252 141.266 236.202 141.439 236.104 141.588L236.178 142.07C235.708 142.169 235.398 142.281 235.25 142.404C235.102 142.503 234.941 142.639 234.768 142.812C234.495 142.837 234.236 142.85 233.988 142.85C233.493 142.85 232.986 142.924 232.467 143.072C231.725 142.8 230.908 142.664 230.018 142.664C229.671 142.664 229.312 142.676 228.941 142.701C228.595 142.726 228.249 142.763 227.902 142.812C227.531 142.862 227.16 142.911 226.789 142.961C226.418 142.986 226.047 142.998 225.676 142.998C225.379 143.048 225.169 143.085 225.045 143.109C224.921 143.134 224.798 143.171 224.674 143.221C223.833 143.493 222.917 143.765 221.928 144.037C220.963 144.309 219.986 144.445 218.996 144.445C217.536 144.445 216.361 144.074 215.471 143.332C215.372 143.109 215.298 142.961 215.248 142.887C215.199 142.812 215.149 142.726 215.1 142.627ZM236.066 140.475L236.549 140.104L236.586 139.324C237.204 137.815 237.835 136.368 238.479 134.982C239.146 133.597 239.839 132.174 240.557 130.715C240.779 130.245 241.002 129.775 241.225 129.305C241.472 128.835 241.707 128.352 241.93 127.857C241.905 127.758 241.893 127.66 241.893 127.561C241.893 127.437 241.917 127.301 241.967 127.152C242.313 126.658 242.585 126.212 242.783 125.816C243.006 125.421 243.216 125.012 243.414 124.592C243.637 124.097 243.872 123.602 244.119 123.107C244.391 122.613 244.725 122.13 245.121 121.66L245.381 121.289L245.789 121.326C245.888 121.277 245.987 121.24 246.086 121.215C246.21 121.165 246.358 121.141 246.531 121.141L247.199 121.252C248.016 120.881 248.733 120.349 249.352 119.656C249.995 118.939 250.638 118.085 251.281 117.096L251.727 116.465L252.32 116.836C252.444 116.91 252.642 116.984 252.914 117.059C253.186 117.133 253.471 117.219 253.768 117.318C254.287 117.442 254.794 117.59 255.289 117.764C255.784 117.912 256.167 118.122 256.439 118.395L256.625 118.729C256.674 119.001 256.712 119.248 256.736 119.471C256.786 119.693 256.835 119.916 256.885 120.139C256.984 120.658 257.07 121.178 257.145 121.697C257.219 122.192 257.268 122.749 257.293 123.367C257.417 123.862 257.528 124.369 257.627 124.889C257.751 125.383 257.862 125.878 257.961 126.373C258.085 127.09 258.221 127.783 258.369 128.451C258.518 129.094 258.715 129.713 258.963 130.307C259.21 130.307 259.359 130.319 259.408 130.344C259.705 130.22 260.051 130.146 260.447 130.121L260.93 130.084L261.078 130.529C261.128 130.604 261.189 130.678 261.264 130.752C261.338 130.826 261.424 130.9 261.523 130.975C261.919 130.999 262.204 131.086 262.377 131.234C262.575 131.358 262.736 131.482 262.859 131.605C262.909 131.655 262.971 131.717 263.045 131.791C263.119 131.84 263.181 131.878 263.23 131.902L263.898 132.162L263.527 132.867C263.255 133.387 262.835 133.894 262.266 134.389C261.721 134.883 261.103 135.292 260.41 135.613C260.46 135.786 260.484 135.947 260.484 136.096C260.509 136.244 260.546 136.417 260.596 136.615C260.695 137.11 260.769 137.63 260.818 138.174C260.893 138.693 260.893 139.238 260.818 139.807C260.571 140.45 260.274 141.031 259.928 141.551C259.606 142.046 259.21 142.503 258.74 142.924C258.295 143.32 257.788 143.654 257.219 143.926C256.65 144.173 256.056 144.309 255.438 144.334C255.091 144.26 254.831 144.173 254.658 144.074C254.51 143.975 254.374 143.876 254.25 143.777C254.052 143.629 253.891 143.53 253.768 143.48L253.285 143.258L253.434 142.701C253.508 142.503 253.495 142.33 253.396 142.182C253.322 142.033 253.149 141.835 252.877 141.588C252.778 141.514 252.691 141.439 252.617 141.365C252.543 141.266 252.456 141.167 252.357 141.068L251.615 140.215L252.84 139.881C253.582 139.683 254.077 139.436 254.324 139.139C254.572 138.817 254.671 138.26 254.621 137.469C254.003 137.345 253.495 137.333 253.1 137.432C252.704 137.506 252.308 137.592 251.912 137.691C251.343 137.84 250.786 137.976 250.242 138.1C249.698 138.199 249.104 138.248 248.461 138.248C248.04 138.248 247.595 138.211 247.125 138.137L246.717 138.1L246.605 137.691C246.605 137.642 246.568 137.592 246.494 137.543C246.445 137.469 246.395 137.407 246.346 137.357C246.222 137.209 246.074 137.011 245.9 136.764C245.727 136.516 245.69 136.207 245.789 135.836C245.616 135.564 245.517 135.279 245.492 134.982C245.393 135.18 245.307 135.378 245.232 135.576C245.183 135.749 245.133 135.923 245.084 136.096L244.936 136.578L244.453 136.652C244.404 136.702 244.354 136.776 244.305 136.875C244.28 136.974 244.28 137.048 244.305 137.098L244.453 137.506L244.082 137.84C244.033 137.914 243.971 137.976 243.896 138.025C243.822 138.075 243.76 138.124 243.711 138.174C243.661 138.446 243.587 138.706 243.488 138.953C243.414 139.201 243.327 139.448 243.229 139.695C243.105 140.091 242.981 140.475 242.857 140.846C242.758 141.217 242.709 141.588 242.709 141.959L242.561 142.441C242.437 142.639 242.276 142.788 242.078 142.887C241.905 142.986 241.732 143.072 241.559 143.146C241.311 143.245 241.138 143.344 241.039 143.443L240.928 143.926L240.371 144C240.049 144.074 239.814 144.124 239.666 144.148C239.542 144.173 239.394 144.186 239.221 144.186L238.738 144.148C238.441 143.852 238.194 143.629 237.996 143.48C237.823 143.307 237.613 143.159 237.365 143.035L237.143 142.738C237.044 142.54 236.982 142.367 236.957 142.219C236.932 142.046 236.895 141.872 236.846 141.699C236.796 141.378 236.722 141.155 236.623 141.031L236.066 140.475ZM247.904 130.826C247.558 131.321 247.224 131.84 246.902 132.385C247.076 132.36 247.236 132.348 247.385 132.348C247.558 132.348 247.731 132.335 247.904 132.311C248.77 132.261 249.574 132.199 250.316 132.125C251.059 132.051 251.863 131.927 252.729 131.754C252.531 130.839 252.308 129.911 252.061 128.971C251.838 128.006 251.59 127.041 251.318 126.076L251.133 126.447C250.514 127.115 249.921 127.833 249.352 128.6C248.783 129.367 248.312 130.096 247.941 130.789L247.904 130.826ZM267.053 144.52C266.805 144.52 266.422 144.482 265.902 144.408C265.507 143.988 265.148 143.419 264.826 142.701C264.529 141.959 264.294 141.18 264.121 140.363C263.973 139.522 263.898 138.693 263.898 137.877C263.923 137.036 264.072 136.294 264.344 135.65C264.344 135.626 264.455 135.329 264.678 134.76C264.925 134.191 265.234 133.473 265.605 132.607C265.977 131.717 266.397 130.74 266.867 129.676C267.337 128.587 267.807 127.523 268.277 126.484C268.747 125.445 269.193 124.505 269.613 123.664C270.059 122.798 270.442 122.13 270.764 121.66C270.986 121.314 271.184 120.98 271.357 120.658C271.555 120.337 271.741 120.04 271.914 119.768C272.186 119.322 272.434 118.914 272.656 118.543C272.904 118.147 273.163 117.801 273.436 117.504C273.732 117.182 274.054 116.91 274.4 116.688C274.747 116.44 275.167 116.23 275.662 116.057C275.959 116.18 276.219 116.316 276.441 116.465C276.664 116.589 276.862 116.749 277.035 116.947L277.146 117.467C277.196 117.64 277.27 117.764 277.369 117.838C277.493 117.887 277.592 117.912 277.666 117.912C277.988 117.986 278.26 118.073 278.482 118.172C278.73 118.246 278.99 118.296 279.262 118.32C279.361 118.469 279.447 118.617 279.521 118.766C279.62 118.914 279.719 119.05 279.818 119.174C280.313 119.891 280.721 120.584 281.043 121.252C281.365 121.92 281.365 122.65 281.043 123.441L281.08 123.85C281.204 124.023 281.266 124.184 281.266 124.332C281.266 124.48 281.241 124.691 281.191 124.963C281.167 125.161 281.142 125.383 281.117 125.631C281.117 125.854 281.154 126.101 281.229 126.373L281.488 126.67C281.884 126.868 282.268 126.967 282.639 126.967C283.133 126.967 283.579 126.855 283.975 126.633C284.37 126.41 284.742 126.188 285.088 125.965C285.36 125.767 285.607 125.606 285.83 125.482C286.077 125.359 286.312 125.272 286.535 125.223C287.055 124.728 287.525 124.295 287.945 123.924C288.391 123.528 288.848 123.132 289.318 122.736C290.209 122.019 291.075 121.252 291.916 120.436C292.757 119.594 293.425 118.555 293.92 117.318C294.192 117.145 294.501 117.059 294.848 117.059C295.194 117.059 295.54 117.133 295.887 117.281C296.233 117.405 296.579 117.553 296.926 117.727C297 117.776 297.062 117.813 297.111 117.838C297.186 117.863 297.26 117.9 297.334 117.949C297.334 118.221 297.445 118.469 297.668 118.691C297.792 118.79 297.878 118.852 297.928 118.877C297.977 118.902 298.027 118.926 298.076 118.951C298.274 119.075 298.435 119.186 298.559 119.285C298.707 119.384 298.818 119.52 298.893 119.693C299.115 120.361 299.486 120.881 300.006 121.252C299.956 121.524 299.969 121.796 300.043 122.068C300.117 122.316 300.204 122.563 300.303 122.811C300.352 122.91 300.389 123.008 300.414 123.107C300.439 123.182 300.476 123.281 300.525 123.404L299.709 123.33L299.82 124.146C299.895 124.567 299.857 125.037 299.709 125.557C299.585 126.076 299.437 126.484 299.264 126.781C299.313 127.523 299.338 128.117 299.338 128.562C299.338 128.983 299.313 129.379 299.264 129.75C299.214 130.121 299.128 130.48 299.004 130.826C298.905 131.148 298.769 131.494 298.596 131.865C298.695 133.745 298.472 135.465 297.928 137.023C297.408 138.582 296.839 140.042 296.221 141.402C296.146 141.576 296.072 141.736 295.998 141.885C295.924 142.033 295.862 142.182 295.812 142.33C295.54 142.404 295.293 142.491 295.07 142.59C294.848 142.689 294.637 142.8 294.439 142.924C294.167 143.097 293.895 143.245 293.623 143.369C293.351 143.468 293.066 143.518 292.77 143.518C291.582 142.652 290.964 141.155 290.914 139.027C290.889 136.9 291.347 134.191 292.287 130.9C292.46 130.777 292.535 130.591 292.51 130.344V129.936L292.139 129.898C292.015 129.898 291.904 129.911 291.805 129.936C291.706 129.96 291.632 130.072 291.582 130.27C290.79 130.839 289.924 131.432 288.984 132.051C288.069 132.645 287.117 133.201 286.127 133.721C285.137 134.215 284.123 134.636 283.084 134.982C282.07 135.304 281.08 135.465 280.115 135.465C277.641 135.465 275.773 134.203 274.512 131.68L274.178 131.012L273.807 131.605C273.732 131.729 273.596 131.977 273.398 132.348C273.225 132.694 273.04 133.102 272.842 133.572C272.669 134.042 272.508 134.525 272.359 135.02C272.236 135.514 272.199 135.947 272.248 136.318C271.951 136.59 271.654 136.9 271.357 137.246C271.085 137.592 270.887 137.988 270.764 138.434C270.714 138.557 270.702 138.681 270.727 138.805C270.751 138.904 270.788 139.015 270.838 139.139C270.813 139.312 270.764 139.436 270.689 139.51C270.615 139.584 270.529 139.658 270.43 139.732C270.306 139.856 270.182 139.992 270.059 140.141C269.935 140.264 269.824 140.413 269.725 140.586C269.675 140.734 269.638 140.895 269.613 141.068C269.589 141.217 269.564 141.353 269.539 141.477C269.539 141.749 269.502 141.934 269.428 142.033C269.18 142.553 268.958 142.986 268.76 143.332C268.587 143.654 268.413 143.901 268.24 144.074C268.067 144.247 267.882 144.359 267.684 144.408C267.51 144.482 267.3 144.52 267.053 144.52ZM309.654 144.148C308.566 144.297 307.576 144.247 306.686 144C305.795 143.753 304.991 143.369 304.273 142.85C303.581 142.33 302.975 141.712 302.455 140.994C301.96 140.277 301.552 139.51 301.23 138.693C301.008 137.011 301.07 135.49 301.416 134.129C301.762 132.743 302.27 131.469 302.938 130.307C303.605 129.144 304.36 128.055 305.201 127.041C306.067 126.027 306.896 125.049 307.688 124.109C307.861 124.184 307.997 124.184 308.096 124.109C308.219 124.035 308.318 123.936 308.393 123.812C308.492 123.689 308.59 123.565 308.689 123.441C308.813 123.318 308.949 123.231 309.098 123.182C309.197 122.959 309.32 122.773 309.469 122.625C309.642 122.477 309.815 122.34 309.988 122.217C310.186 122.068 310.359 121.92 310.508 121.771C310.681 121.623 310.829 121.438 310.953 121.215C311.201 121.165 311.411 121.079 311.584 120.955C311.782 120.831 311.955 120.695 312.104 120.547C312.277 120.398 312.45 120.262 312.623 120.139C312.796 120.015 313.007 119.916 313.254 119.842V119.359C313.798 119.112 314.194 118.84 314.441 118.543C314.689 118.246 314.986 117.863 315.332 117.393C315.604 117.368 315.814 117.355 315.963 117.355C316.136 117.355 316.396 117.331 316.742 117.281C316.965 116.861 317.175 116.551 317.373 116.354C317.571 116.156 317.855 115.933 318.227 115.686C318.598 115.883 318.993 116.007 319.414 116.057C319.835 116.081 320.218 116.267 320.564 116.613C320.589 116.91 320.676 117.145 320.824 117.318C320.973 117.467 321.133 117.615 321.307 117.764C321.48 117.887 321.653 118.023 321.826 118.172C321.999 118.32 322.111 118.531 322.16 118.803C322.284 118.803 322.358 118.778 322.383 118.729C322.432 118.679 322.519 118.667 322.643 118.691C322.692 118.889 322.742 119.05 322.791 119.174C322.84 119.298 322.89 119.409 322.939 119.508C323.014 119.607 323.076 119.718 323.125 119.842C323.199 119.965 323.261 120.114 323.311 120.287C323.187 120.584 323.076 120.906 322.977 121.252C322.878 121.574 322.68 121.796 322.383 121.92C322.383 122.118 322.457 122.229 322.605 122.254C322.754 122.254 322.84 122.34 322.865 122.514C322.89 122.736 322.853 122.922 322.754 123.07C323.447 124.233 324.077 125.458 324.646 126.744C325.215 128.006 325.859 129.218 326.576 130.381C326.527 130.727 326.539 131.074 326.613 131.42C326.712 131.742 326.824 132.063 326.947 132.385C327.096 132.706 327.232 133.028 327.355 133.35C327.479 133.671 327.566 133.993 327.615 134.314C327.665 134.735 327.665 135.193 327.615 135.688C327.566 136.158 327.467 136.615 327.318 137.061C327.17 137.506 326.972 137.926 326.725 138.322C326.477 138.693 326.193 138.978 325.871 139.176C325.475 139.671 324.98 140.079 324.387 140.4C323.793 140.697 323.249 141.056 322.754 141.477C322.408 141.674 322.036 141.823 321.641 141.922C321.245 141.996 320.837 142.083 320.416 142.182C320.094 142.38 319.711 142.577 319.266 142.775C318.82 142.949 318.363 143.109 317.893 143.258C317.423 143.406 316.952 143.53 316.482 143.629C316.012 143.703 315.592 143.715 315.221 143.666C314.33 143.988 313.464 144.21 312.623 144.334C311.782 144.458 310.792 144.396 309.654 144.148ZM310.137 130.641C309.889 131.21 309.592 131.729 309.246 132.199C308.924 132.645 308.603 133.102 308.281 133.572C307.96 134.042 307.675 134.549 307.428 135.094C307.205 135.613 307.081 136.232 307.057 136.949C307.551 137.37 308.133 137.63 308.801 137.729C309.493 137.803 310.199 137.815 310.916 137.766C311.633 137.691 312.351 137.592 313.068 137.469C313.786 137.345 314.429 137.283 314.998 137.283C314.998 137.061 315.097 136.949 315.295 136.949C316.334 136.85 317.299 136.566 318.189 136.096C319.08 135.601 320.008 135.106 320.973 134.611C321.096 134.314 321.257 134.055 321.455 133.832C321.653 133.609 321.764 133.288 321.789 132.867C321.665 132.645 321.579 132.459 321.529 132.311C321.505 132.162 321.492 131.939 321.492 131.643C320.849 130.752 320.292 129.787 319.822 128.748C319.352 127.684 318.808 126.682 318.189 125.742C318.14 125.866 318.041 125.99 317.893 126.113C317.744 126.237 317.583 126.212 317.41 126.039C317.336 126.286 317.225 126.46 317.076 126.559C316.928 126.633 316.755 126.67 316.557 126.67C316.383 126.67 316.198 126.633 316 126.559C315.827 126.484 315.666 126.385 315.518 126.262C314.652 126.954 313.786 127.622 312.92 128.266C312.079 128.909 311.312 129.663 310.619 130.529C310.495 130.604 310.421 130.628 310.396 130.604C310.372 130.579 310.285 130.591 310.137 130.641ZM330.918 125.631C330.868 125.309 330.807 125.111 330.732 125.037C330.906 124.592 331.029 124.159 331.104 123.738C331.202 123.293 331.277 122.872 331.326 122.477C331.376 122.13 331.425 121.809 331.475 121.512C331.549 121.215 331.635 120.93 331.734 120.658C332.155 120.559 332.464 120.386 332.662 120.139C332.885 119.867 333.058 119.632 333.182 119.434C333.627 119.409 333.911 119.471 334.035 119.619C334.184 119.768 334.344 120.015 334.518 120.361C334.641 120.633 334.814 120.93 335.037 121.252C335.26 121.549 335.594 121.784 336.039 121.957C336.113 122.229 336.2 122.489 336.299 122.736C336.398 122.984 336.509 123.243 336.633 123.516C336.855 124.035 337.066 124.579 337.264 125.148C337.462 125.693 337.573 126.212 337.598 126.707C337.301 127.276 337.066 127.932 336.893 128.674C336.744 129.416 336.645 130.171 336.596 130.938C336.571 131.68 336.596 132.397 336.67 133.09C336.744 133.783 336.868 134.364 337.041 134.834L337.264 135.428L338.08 135.354C338.971 135.131 339.775 134.883 340.492 134.611C341.21 134.314 341.878 133.968 342.496 133.572C343.115 133.176 343.708 132.731 344.277 132.236C344.846 131.717 345.44 131.111 346.059 130.418C346.652 129.725 347.184 128.946 347.654 128.08C348.124 127.189 348.508 126.274 348.805 125.334C349.126 124.394 349.374 123.454 349.547 122.514C349.72 121.574 349.831 120.695 349.881 119.879C350.351 119.656 350.611 119.298 350.66 118.803L350.549 118.32C350.475 118.197 350.438 118.085 350.438 117.986C350.462 117.863 350.499 117.751 350.549 117.652C350.747 117.083 351.167 116.663 351.811 116.391C352.256 116.688 352.664 117.009 353.035 117.355C353.431 117.702 353.79 118.048 354.111 118.395C354.161 119.062 354.26 119.644 354.408 120.139C354.557 120.609 354.717 121.066 354.891 121.512C355.064 121.932 355.212 122.34 355.336 122.736C355.484 123.132 355.583 123.615 355.633 124.184C355.385 124.926 355.2 125.631 355.076 126.299C354.977 126.942 354.878 127.622 354.779 128.34L354.705 128.748C354.26 129.515 353.814 130.307 353.369 131.123C352.949 131.915 352.602 132.607 352.33 133.201C352.182 133.35 352.046 133.523 351.922 133.721C351.823 133.919 351.724 134.117 351.625 134.314C351.576 134.389 351.501 134.512 351.402 134.686C351.328 134.859 351.254 134.982 351.18 135.057L350.289 134.723L350.066 135.873L349.473 136.021L349.027 136.541C348.458 137.531 347.852 138.359 347.209 139.027C346.59 139.695 345.885 140.289 345.094 140.809C344.327 141.328 343.449 141.823 342.459 142.293C341.494 142.738 340.381 143.221 339.119 143.74C338.624 143.666 338.191 143.629 337.82 143.629C337.474 143.604 337.128 143.579 336.781 143.555C336.435 143.555 336.101 143.542 335.779 143.518C335.458 143.493 335.087 143.456 334.666 143.406C334.567 143.184 334.431 143.023 334.258 142.924C334.085 142.825 333.924 142.775 333.775 142.775C333.281 142.528 332.91 142.182 332.662 141.736C332.415 141.291 332.155 140.796 331.883 140.252C331.759 139.955 331.623 139.658 331.475 139.361C331.351 139.064 331.19 138.78 330.992 138.508L331.734 138.285L330.77 137.172C330.695 137.098 330.609 137.023 330.51 136.949C330.436 136.875 330.361 136.788 330.287 136.689V135.984C330.188 133.956 330.139 132.088 330.139 130.381C330.163 128.649 330.398 127.128 330.844 125.816L330.918 125.631ZM355.707 140.809C355.583 140.833 355.472 140.747 355.373 140.549C355.274 140.326 355.163 140.116 355.039 139.918H355.447C355.274 139.374 355.225 138.879 355.299 138.434C355.398 137.964 355.509 137.518 355.633 137.098C355.757 136.652 355.855 136.232 355.93 135.836C356.029 135.415 355.992 134.982 355.818 134.537C355.942 134.611 356.029 134.587 356.078 134.463C356.152 134.314 356.202 134.141 356.227 133.943C356.276 133.721 356.288 133.498 356.264 133.275C356.264 133.028 356.251 132.83 356.227 132.682C356.548 131.915 356.796 131.123 356.969 130.307C357.167 129.49 357.34 128.686 357.488 127.895C357.637 127.078 357.798 126.299 357.971 125.557C358.169 124.79 358.416 124.072 358.713 123.404C359.059 123.355 359.418 123.404 359.789 123.553C360.185 123.676 360.445 123.837 360.568 124.035C361.335 123.441 362.016 122.724 362.609 121.883C363.203 121.042 363.797 120.225 364.391 119.434C365.009 118.617 365.702 117.9 366.469 117.281C367.236 116.663 368.188 116.292 369.326 116.168C369.92 116.589 370.588 117.046 371.33 117.541C372.072 118.011 372.678 118.605 373.148 119.322C373.346 119.446 373.532 119.582 373.705 119.73C373.903 119.854 374.101 119.978 374.299 120.102V120.658C374.645 120.98 374.93 121.363 375.152 121.809C375.4 122.229 375.61 122.687 375.783 123.182C375.981 123.652 376.167 124.134 376.34 124.629C376.513 125.124 376.711 125.581 376.934 126.002C376.884 126.15 376.859 126.286 376.859 126.41C376.884 126.509 376.909 126.62 376.934 126.744C376.983 126.843 377.02 126.967 377.045 127.115C377.07 127.239 377.082 127.4 377.082 127.598C376.983 128.909 376.55 129.973 375.783 130.789C375.041 131.581 374.126 132.236 373.037 132.756C371.973 133.251 370.835 133.684 369.623 134.055C368.411 134.401 367.31 134.785 366.32 135.205C366.32 135.304 366.37 135.354 366.469 135.354C366.592 135.354 366.63 135.428 366.58 135.576C367.322 136.021 367.891 136.38 368.287 136.652C368.708 136.924 369.091 137.16 369.438 137.357C369.809 137.531 370.204 137.679 370.625 137.803C371.07 137.926 371.676 138.075 372.443 138.248C373.21 138.421 373.804 138.57 374.225 138.693C374.67 138.792 375.066 138.879 375.412 138.953C375.758 139.003 376.13 139.052 376.525 139.102C376.921 139.151 377.453 139.213 378.121 139.287C378.393 139.559 378.616 139.881 378.789 140.252C378.962 140.623 379.086 140.994 379.16 141.365C379.234 141.736 379.247 142.095 379.197 142.441C379.173 142.763 379.074 143.023 378.9 143.221C378.925 143.32 378.987 143.369 379.086 143.369C379.21 143.344 379.333 143.344 379.457 143.369C379.284 143.493 379.135 143.641 379.012 143.814C378.888 143.988 378.764 144.161 378.641 144.334C378.517 144.507 378.368 144.668 378.195 144.816C378.047 144.965 377.849 145.051 377.602 145.076C376.711 145.423 375.573 145.435 374.188 145.113C372.802 144.792 371.033 144.223 368.881 143.406C367.817 143.01 366.951 142.652 366.283 142.33C365.615 142.008 365.034 141.699 364.539 141.402C364.044 141.081 363.587 140.747 363.166 140.4C362.745 140.029 362.263 139.596 361.719 139.102C361.645 139.126 361.595 139.176 361.57 139.25C361.57 139.324 361.533 139.374 361.459 139.398C361.335 140.388 361.137 141.192 360.865 141.811C360.618 142.429 360.247 143.06 359.752 143.703C359.356 143.629 359.084 143.666 358.936 143.814C358.812 143.963 358.651 144.099 358.453 144.223C358.206 144.272 358.02 144.26 357.896 144.186C357.773 144.136 357.661 144.074 357.562 144C357.464 143.926 357.352 143.852 357.229 143.777C357.105 143.703 356.907 143.678 356.635 143.703C356.561 143.48 356.486 143.27 356.412 143.072C356.338 142.85 356.14 142.751 355.818 142.775C355.893 142.553 355.917 142.367 355.893 142.219C355.868 142.046 355.831 141.897 355.781 141.773C355.732 141.625 355.682 141.477 355.633 141.328C355.608 141.18 355.633 141.007 355.707 140.809ZM368.102 123.85C367.78 124.32 367.421 124.753 367.025 125.148C366.63 125.52 366.234 125.915 365.838 126.336C365.467 126.732 365.133 127.177 364.836 127.672C364.539 128.142 364.329 128.711 364.205 129.379C365.244 129.255 366.333 128.971 367.471 128.525C368.609 128.055 369.685 127.61 370.699 127.189C370.576 126.274 370.254 125.544 369.734 125C369.215 124.431 368.671 124.048 368.102 123.85Z" fill="black"/>
<defs>
<linearGradient id="paint0_linear_244_90" x1="134.915" y1="113.763" x2="123.944" y2="132.83" gradientUnits="userSpaceOnUse">
<stop stop-color="white"/>
<stop offset="1"/>
</linearGradient>
<linearGradient id="paint1_linear_244_90" x1="92.6913" y1="106.289" x2="92.6913" y2="149.181" gradientUnits="userSpaceOnUse">
<stop stop-color="white"/>
<stop offset="1"/>
</linearGradient>
<linearGradient id="paint2_linear_244_90" x1="82.9431" y1="108.888" x2="82.9431" y2="141.383" gradientUnits="userSpaceOnUse">
<stop stop-color="white"/>
<stop offset="1"/>
</linearGradient>
<linearGradient id="paint3_linear_244_90" x1="79.6935" y1="106.289" x2="79.6935" y2="125.785" gradientUnits="userSpaceOnUse">
<stop stop-color="white"/>
<stop offset="1"/>
</linearGradient>
<linearGradient id="paint4_linear_244_90" x1="109.588" y1="106.289" x2="109.588" y2="147.882" gradientUnits="userSpaceOnUse">
<stop stop-color="white"/>
<stop offset="1"/>
</linearGradient>
<linearGradient id="paint5_linear_244_90" x1="128" y1="111.859" x2="108.808" y2="145.215" gradientUnits="userSpaceOnUse">
<stop stop-color="white"/>
<stop offset="1"/>
</linearGradient>
</defs>
</svg>
